<svg width="30" height="30" viewBox="0 0 30 30" fill="none" xmlns="http://www.w3.org/2000/svg">
<path fill-rule="evenodd" clip-rule="evenodd" d="M13.7471 2.59719C13.4212 2.67621 12.9867 2.93787 12.7683 3.18668C12.4814 3.51359 12.3326 3.89993 12.1948 4.67617C12.1256 5.06564 12.0595 5.42824 12.048 5.48196C12.0329 5.55214 11.9337 5.61215 11.6954 5.69518C11.5129 5.75876 11.1495 5.90746 10.8877 6.0256L10.4117 6.24047L9.7831 5.80032C9.43735 5.55824 9.03318 5.30654 8.88497 5.241C8.3612 5.00933 7.75608 5.02925 7.20092 5.29638C6.79915 5.48972 5.46232 6.82655 5.26898 7.22832C5.00185 7.78348 4.98193 8.38861 5.2136 8.91237C5.27914 9.06059 5.53084 9.46475 5.77292 9.81051L6.21307 10.4391L5.99819 10.9151C5.88006 11.1769 5.73136 11.5403 5.66777 11.7228C5.58475 11.9611 5.52473 12.0603 5.45456 12.0754C5.40084 12.0869 5.03823 12.153 4.64877 12.2222C3.60364 12.4077 3.15025 12.6557 2.80727 13.2291C2.54976 13.6597 2.5 13.9511 2.5 15.0293C2.5 16.1075 2.54976 16.399 2.80727 16.8296C3.15025 17.403 3.60364 17.6509 4.64877 17.8365C5.03823 17.9057 5.40084 17.9717 5.45456 17.9832C5.52473 17.9983 5.58475 18.0976 5.66777 18.3359C5.73136 18.5183 5.88006 18.8818 5.99819 19.1435L6.21307 19.6195L5.77292 20.2481C5.53084 20.5939 5.27914 20.9981 5.2136 21.1463C4.98193 21.67 5.00185 22.2752 5.26898 22.8303C5.46232 23.2321 6.79915 24.5689 7.20092 24.7623C7.75608 25.0294 8.3612 25.0493 8.88497 24.8176C9.03318 24.7521 9.43735 24.5004 9.7831 24.2583L10.4117 23.8182L10.8877 24.0331C11.1495 24.1512 11.5129 24.2999 11.6954 24.3635C11.9337 24.4465 12.0329 24.5065 12.048 24.5767C12.0595 24.6304 12.1256 24.993 12.1948 25.3825C12.3803 26.4276 12.6283 26.881 13.2017 27.224C13.6323 27.4815 13.9237 27.5312 15.0019 27.5312C16.0801 27.5312 16.3716 27.4815 16.8022 27.224C17.1285 27.0288 17.3656 26.7617 17.5455 26.3869C17.808 25.8401 17.7694 25.4415 17.4344 25.2372C17.0497 25.0027 16.6638 25.175 16.4768 25.6648C16.3944 25.8805 16.3085 26.01 16.1853 26.1039L16.0107 26.2371H15.0057C14.0317 26.2371 13.9959 26.2336 13.8413 26.1234C13.7536 26.0608 13.6507 25.9493 13.6125 25.8755C13.5744 25.8018 13.4632 25.2926 13.3654 24.744C13.1378 23.467 13.1684 23.5116 12.3306 23.2369C11.9868 23.1242 11.4453 22.9016 11.1273 22.7422C10.7288 22.5424 10.4921 22.4523 10.3658 22.4523C10.163 22.4523 9.98597 22.5561 9.04398 23.2269C8.07444 23.9174 7.99357 23.907 7.0589 22.9723C6.12424 22.0377 6.11384 21.9568 6.80432 20.9873C7.47518 20.0453 7.57891 19.8683 7.57891 19.6655C7.57891 19.5393 7.48876 19.3018 7.2898 18.9039C7.13079 18.5859 6.90551 18.0426 6.78923 17.6966C6.50765 16.8588 6.54872 16.8875 5.3228 16.6698C4.23113 16.4759 4.07412 16.423 3.9113 16.1947C3.79678 16.0342 3.79414 16.0077 3.79414 15.0293C3.79414 14.0593 3.79766 14.0233 3.90788 13.8687C3.97044 13.781 4.08252 13.6778 4.15694 13.6393C4.23137 13.6008 4.73955 13.4905 5.28627 13.3941C6.5538 13.1705 6.50662 13.203 6.78923 12.3621C6.90551 12.016 7.13079 11.4727 7.2898 11.1547C7.48876 10.7568 7.57891 10.5194 7.57891 10.3932C7.57891 10.1904 7.47518 10.0134 6.80432 9.07138C6.11384 8.10184 6.12424 8.02097 7.0589 7.08631C7.99357 6.15164 8.07444 6.14124 9.04398 6.83173C9.98597 7.50258 10.163 7.60631 10.3658 7.60631C10.4921 7.60631 10.729 7.51626 11.1273 7.31667C11.4453 7.15736 11.9793 6.93687 12.3139 6.8267C12.9029 6.63277 13.0584 6.54941 13.1498 6.37863C13.1737 6.33404 13.2693 5.86893 13.3624 5.34512C13.5554 4.25868 13.6083 4.10142 13.8366 3.9387C13.9971 3.82418 14.0236 3.82155 15.0019 3.82155C15.972 3.82155 16.008 3.82506 16.1625 3.93529C16.2502 3.99784 16.3532 4.10934 16.3913 4.18313C16.4294 4.25687 16.5407 4.76608 16.6385 5.3147C16.8661 6.5916 16.8355 6.54706 17.6733 6.82172C18.0171 6.93443 18.5585 7.15707 18.8765 7.31647C19.2751 7.51626 19.5117 7.60631 19.6381 7.60631C19.8409 7.60631 20.0179 7.50258 20.9599 6.83173C21.9294 6.14124 22.0103 6.15164 22.9449 7.08631C23.8796 8.02097 23.89 8.10184 23.1995 9.07138C22.5287 10.0134 22.4249 10.1904 22.4249 10.3932C22.4249 10.5195 22.515 10.7564 22.7146 11.1547C22.8739 11.4727 23.0944 12.0067 23.2046 12.3413C23.3985 12.9303 23.4818 13.0858 23.6526 13.1772C23.6972 13.2011 24.1623 13.2967 24.6861 13.3898C25.7726 13.5828 25.9298 13.6358 26.0925 13.864C26.2071 14.0245 26.2097 14.0507 26.2097 15.0331V16.0381L26.0765 16.2127C25.9826 16.3359 25.8531 16.4218 25.6374 16.5042C25.1476 16.6912 24.9753 17.0771 25.2098 17.4618C25.4141 17.7968 25.8127 17.8354 26.3595 17.5729C26.7381 17.3913 27.0013 17.1557 27.2053 16.8161C27.4546 16.4012 27.5022 16.1151 27.5031 15.0274C27.5039 13.9511 27.4543 13.6601 27.1966 13.2291C26.8459 12.6428 26.4098 12.4107 25.263 12.2002C24.8228 12.1194 24.4584 12.0472 24.4531 12.0396C24.4479 12.0321 24.393 11.8831 24.3311 11.7085C24.2693 11.5339 24.1225 11.1769 24.0048 10.9151L23.7908 10.4391L24.2309 9.81051C24.473 9.46475 24.7247 9.06059 24.7902 8.91237C25.0219 8.38861 25.002 7.78348 24.7349 7.22832C24.5415 6.82655 23.2047 5.48972 22.8029 5.29638C22.2478 5.02925 21.6426 5.00933 21.1189 5.241C20.9707 5.30654 20.5665 5.55824 20.2207 5.80032L19.5921 6.24047L19.1161 6.0256C18.8544 5.90746 18.4909 5.75876 18.3085 5.69518C18.0702 5.61215 17.9709 5.55214 17.9558 5.48196C17.9443 5.42824 17.8783 5.06564 17.8091 4.67617C17.6235 3.63104 17.3756 3.17765 16.8022 2.83468C16.3663 2.57399 16.0829 2.52687 14.9795 2.53155C14.374 2.53414 13.904 2.55915 13.7471 2.59719ZM14.1597 8.88014C13.6241 9.00643 13.2431 9.51275 13.2443 10.0966C13.2452 10.5121 13.3996 10.7306 14.4573 11.8134C15.0394 12.4093 15.4721 12.8931 15.5151 12.9961C15.6125 13.2292 15.6053 13.4976 15.4954 13.7352C15.4012 13.9388 14.0062 15.3505 13.7822 15.469C13.5767 15.5777 13.355 15.6063 13.1113 15.5558C12.8932 15.5106 12.8061 15.4364 11.8032 14.4406C10.6452 13.2908 10.486 13.1762 10.0451 13.1751C9.74628 13.1744 9.37572 13.3392 9.15635 13.5705C8.90733 13.833 8.84004 14.057 8.81357 14.7117C8.69729 17.5894 10.7133 20.1738 13.5821 20.8247C13.7692 20.8671 14.341 20.9133 14.9531 20.9354C15.92 20.9704 16.0295 20.9836 16.3377 21.1021C16.5218 21.1729 16.7923 21.3159 16.9389 21.42C17.0855 21.5239 18.1508 22.5844 19.3063 23.7766C20.4618 24.9687 21.4549 25.9708 21.5131 26.0034C21.6606 26.0859 21.9628 26.0804 22.1335 25.9921C22.2123 25.9514 22.3127 25.8487 22.3565 25.7638C22.4411 25.6004 22.4585 25.2873 22.39 25.1648C22.3674 25.1244 21.7801 24.5031 21.0849 23.7841C17.9428 20.5343 17.6497 20.2645 16.9551 19.9822C16.3823 19.7494 16.141 19.7099 15.0508 19.6699C14.2073 19.6391 13.9242 19.6105 13.6116 19.5245C11.9536 19.0689 10.6405 17.7345 10.2152 16.0731C10.1158 15.6849 10.0234 14.541 10.0914 14.541C10.1116 14.541 10.494 14.9183 10.9412 15.3795C11.3884 15.8407 11.8807 16.3114 12.0351 16.4255C12.6974 16.9148 13.6045 16.9811 14.3603 16.5955C14.5798 16.4835 15.9168 15.2512 16.2776 14.8283C16.9511 14.0388 17.0416 13.0109 16.5114 12.1724C16.4266 12.0381 15.9642 11.5314 15.4841 11.0464C15.0041 10.5615 14.6112 10.1461 14.6112 10.1233C14.6112 10.0548 15.5839 10.1383 16.0253 10.2448C16.5184 10.3638 17.2414 10.6966 17.6562 10.9956C18.0417 11.2734 18.5976 11.8449 18.8551 12.2281C19.1613 12.6839 19.3411 13.1074 19.5675 13.9061C19.5865 13.9733 19.6194 14.5556 19.6406 15.2003C19.6725 16.1693 19.6967 16.4304 19.7805 16.7077C19.9066 17.1248 20.1613 17.6312 20.4152 17.9698C20.6564 18.2914 24.787 22.5537 24.9319 22.6305C25.4322 22.8956 25.9945 22.453 25.8426 21.9136C25.8065 21.7854 25.2698 21.2033 23.6377 19.5222C22.4512 18.3001 21.4105 17.1903 21.3251 17.056C20.9851 16.5214 20.9472 16.3419 20.9076 15.0782C20.87 13.877 20.8298 13.5988 20.593 12.9014C19.9865 11.1153 18.4219 9.61414 16.6236 9.09301C15.7963 8.85328 14.6821 8.75702 14.1597 8.88014Z" fill="#00A3FF" stroke="#00A3FF" stroke-width="0.25"/>
</svg>
