<svg width="30" height="30" viewBox="0 0 30 30" fill="none" xmlns="http://www.w3.org/2000/svg">
<circle cx="15" cy="15" r="15" fill="#4FB400"/>
<path fill-rule="evenodd" clip-rule="evenodd" d="M10.5478 6.61719H18.3472L21.2962 8.70285V16.2136C21.2962 16.2136 20.9116 16.1452 20.6893 16.1281L20.6533 16.1254C20.5894 16.1207 20.5808 16.12 20.5804 16.1215C20.5803 16.1217 20.5805 16.122 20.5806 16.1223C20.5821 16.1254 20.5855 16.1322 20.4467 16.1367V9.16774H17.8823V7.45818H10.1066V21.2449H17.8824C17.8824 21.2449 17.8823 21.2312 18.6089 22.0859H10.5478C9.83833 22.0859 9.26562 21.5132 9.26562 20.8038V7.89936C9.26562 7.18989 9.83833 6.61719 10.5478 6.61719ZM12.3537 12.7938H18.089V13.6762H12.3537V12.7938ZM16.7655 14.9998H12.3537V15.8821H16.7655V14.9998ZM12.3537 17.2052H15.8831V18.0876H12.3537V17.2052Z" fill="white"/>
<path d="M18.3472 6.61719L18.4916 6.41308L18.4267 6.36719H18.3472V6.61719ZM21.2962 8.70285H21.5462V8.57345L21.4406 8.49874L21.2962 8.70285ZM21.2962 16.2136L21.2525 16.4597L21.5462 16.512V16.2136H21.2962ZM20.6893 16.1281L20.7085 15.8789L20.7079 15.8788L20.6893 16.1281ZM20.6533 16.1254L20.6347 16.3748L20.6347 16.3748L20.6533 16.1254ZM20.5804 16.1215L20.8225 16.184L20.8225 16.1839L20.5804 16.1215ZM20.5806 16.1223L20.3567 16.2334L20.3567 16.2335L20.5806 16.1223ZM20.4467 16.1367H20.1967V16.3949L20.4547 16.3865L20.4467 16.1367ZM20.4467 9.16774H20.6967V8.91774H20.4467V9.16774ZM17.8823 9.16774H17.6323V9.41774H17.8823V9.16774ZM17.8823 7.45818H18.1323V7.20818H17.8823V7.45818ZM10.1066 7.45818V7.20818H9.85662V7.45818H10.1066ZM10.1066 21.2449H9.85662V21.4949H10.1066V21.2449ZM17.8824 21.2449V21.4949H18.1324L18.1324 21.2449L17.8824 21.2449ZM18.6089 22.0859V22.3359H19.1495L18.7994 21.924L18.6089 22.0859ZM18.089 12.7938H18.339V12.5438H18.089V12.7938ZM12.3537 12.7938V12.5438H12.1037V12.7938H12.3537ZM18.089 13.6762V13.9262H18.339V13.6762H18.089ZM12.3537 13.6762H12.1037V13.9262H12.3537V13.6762ZM12.3537 14.9998V14.7498H12.1037V14.9998H12.3537ZM16.7655 14.9998H17.0155V14.7498H16.7655V14.9998ZM12.3537 15.8821H12.1037V16.1321H12.3537V15.8821ZM16.7655 15.8821V16.1321H17.0155V15.8821H16.7655ZM15.8831 17.2052H16.1331V16.9552H15.8831V17.2052ZM12.3537 17.2052V16.9552H12.1037V17.2052H12.3537ZM15.8831 18.0876V18.3376H16.1331V18.0876H15.8831ZM12.3537 18.0876H12.1037V18.3376H12.3537V18.0876ZM18.3472 6.36719H10.5478V6.86719H18.3472V6.36719ZM21.4406 8.49874L18.4916 6.41308L18.2029 6.8213L21.1519 8.90696L21.4406 8.49874ZM21.5462 16.2136V8.70285H21.0462V16.2136H21.5462ZM20.6702 16.3774C20.7709 16.3851 20.9144 16.4052 21.0378 16.4243C21.0984 16.4337 21.1523 16.4426 21.191 16.4492C21.2104 16.4524 21.2259 16.4551 21.2365 16.4569C21.2418 16.4579 21.2458 16.4586 21.2485 16.4591C21.2499 16.4593 21.2509 16.4595 21.2516 16.4596C21.2519 16.4596 21.2521 16.4597 21.2523 16.4597C21.2524 16.4597 21.2524 16.4597 21.2524 16.4597C21.2525 16.4597 21.2525 16.4597 21.2525 16.4597C21.2525 16.4597 21.2525 16.4597 21.2525 16.4597C21.2525 16.4597 21.2525 16.4597 21.2962 16.2136C21.34 15.9675 21.34 15.9675 21.34 15.9675C21.34 15.9675 21.3399 15.9675 21.3399 15.9675C21.3399 15.9675 21.3399 15.9674 21.3399 15.9674C21.3398 15.9674 21.3397 15.9674 21.3396 15.9674C21.3394 15.9674 21.3391 15.9673 21.3387 15.9672C21.3378 15.9671 21.3367 15.9669 21.3352 15.9666C21.3321 15.9661 21.3277 15.9653 21.3221 15.9643C21.3108 15.9624 21.2945 15.9596 21.2743 15.9561C21.2339 15.9493 21.1778 15.9401 21.1145 15.9302C20.99 15.9109 20.83 15.8882 20.7085 15.8789L20.6702 16.3774ZM20.6347 16.3748L20.6708 16.3774L20.7079 15.8788L20.6718 15.8761L20.6347 16.3748ZM20.8225 16.1839C20.8064 16.2462 20.7695 16.2918 20.7314 16.3207C20.6979 16.346 20.6661 16.3567 20.6503 16.3613C20.6203 16.3699 20.5958 16.3705 20.5928 16.3706C20.5811 16.3711 20.573 16.3704 20.579 16.3707C20.5862 16.3711 20.6012 16.3722 20.6347 16.3748L20.6719 15.8761C20.6415 15.8739 20.6201 15.8723 20.607 15.8715C20.6028 15.8713 20.5885 15.8704 20.5731 15.871C20.5682 15.8712 20.5425 15.872 20.5117 15.8809C20.4897 15.8872 20.373 15.9244 20.3383 16.0591L20.8225 16.1839ZM20.8046 16.0113C20.8024 16.0069 20.8107 16.0226 20.8171 16.0412C20.8232 16.0594 20.8403 16.1147 20.8225 16.184L20.3383 16.059C20.3204 16.1285 20.3375 16.1841 20.3438 16.2025C20.3476 16.2139 20.3515 16.2225 20.3534 16.2266C20.3545 16.2289 20.3553 16.2307 20.3558 16.2317C20.3561 16.2323 20.3563 16.2327 20.3564 16.233C20.3565 16.2331 20.3566 16.2332 20.3566 16.2333C20.3566 16.2334 20.3567 16.2334 20.3567 16.2334L20.8046 16.0113ZM20.4547 16.3865C20.5235 16.3843 20.5722 16.3813 20.6063 16.3757C20.6158 16.3742 20.6295 16.3716 20.6449 16.3672C20.6566 16.3638 20.6883 16.3542 20.7221 16.3308C20.7606 16.3042 20.823 16.2431 20.8303 16.1416C20.8335 16.0984 20.8248 16.0638 20.8178 16.043C20.8142 16.0326 20.8107 16.0243 20.8084 16.0193C20.8073 16.0167 20.8063 16.0147 20.8056 16.0134C20.8053 16.0127 20.805 16.0122 20.8049 16.0118C20.8048 16.0116 20.8047 16.0115 20.8047 16.0114C20.8046 16.0113 20.8046 16.0112 20.8046 16.0112L20.3567 16.2335C20.362 16.2441 20.326 16.184 20.3316 16.1057C20.3389 16.0051 20.4008 15.9451 20.4376 15.9196C20.4697 15.8974 20.4987 15.889 20.5061 15.8868C20.5172 15.8837 20.5249 15.8824 20.5263 15.8822C20.5277 15.8819 20.5087 15.8845 20.4386 15.8868L20.4547 16.3865ZM20.1967 9.16774V16.1367H20.6967V9.16774H20.1967ZM17.8823 9.41774H20.4467V8.91774H17.8823V9.41774ZM17.6323 7.45818V9.16774H18.1323V7.45818H17.6323ZM10.1066 7.70818H17.8823V7.20818H10.1066V7.70818ZM10.3566 21.2449V7.45818H9.85662V21.2449H10.3566ZM17.8824 20.9949H10.1066V21.4949H17.8824V20.9949ZM18.7994 21.924C18.4359 21.4964 18.2532 21.2849 18.161 21.1799C18.1153 21.1278 18.0902 21.1002 18.0758 21.0848C18.0695 21.0782 18.0611 21.0694 18.0521 21.0612C18.0509 21.0601 18.035 21.0451 18.0123 21.0313C18.0054 21.0271 17.9929 21.0199 17.9763 21.0132C17.9626 21.0077 17.9283 20.9949 17.8824 20.9949C17.8296 20.9949 17.7492 21.0133 17.6893 21.0861C17.6629 21.1182 17.6487 21.1516 17.6412 21.1789C17.6375 21.1925 17.6353 21.2049 17.6341 21.2158C17.6335 21.2211 17.6329 21.2288 17.6327 21.2313C17.6324 21.2382 17.6324 21.245 17.8824 21.2449C18.1324 21.2449 18.1323 21.2517 18.132 21.2586C18.1318 21.261 18.1312 21.2688 18.1307 21.2741C18.1294 21.2849 18.1272 21.2974 18.1235 21.311C18.116 21.3383 18.1018 21.3717 18.0754 21.4038C18.0155 21.4766 17.9351 21.4949 17.8824 21.4949C17.8365 21.4949 17.8022 21.4822 17.7886 21.4767C17.772 21.47 17.7596 21.4628 17.7528 21.4587C17.7391 21.4504 17.7293 21.4426 17.7256 21.4396C17.7209 21.4358 17.7174 21.4326 17.7154 21.4308C17.7093 21.4252 17.7065 21.4221 17.7116 21.4275C17.7199 21.4362 17.7403 21.4586 17.7853 21.5099C17.8748 21.6117 18.0553 21.8207 18.4184 22.2478L18.7994 21.924ZM10.5478 22.3359H18.6089V21.8359H10.5478V22.3359ZM9.01562 20.8038C9.01562 21.6513 9.70026 22.3359 10.5478 22.3359V21.8359C9.9764 21.8359 9.51562 21.3752 9.51562 20.8038H9.01562ZM9.01562 7.89936V20.8038H9.51562V7.89936H9.01562ZM10.5478 6.36719C9.70026 6.36719 9.01562 7.05182 9.01562 7.89936H9.51562C9.51562 7.32796 9.9764 6.86719 10.5478 6.86719V6.36719ZM18.089 12.5438H12.3537V13.0438H18.089V12.5438ZM18.339 13.6762V12.7938H17.839V13.6762H18.339ZM12.3537 13.9262H18.089V13.4262H12.3537V13.9262ZM12.1037 12.7938V13.6762H12.6037V12.7938H12.1037ZM12.3537 15.2498H16.7655V14.7498H12.3537V15.2498ZM12.6037 15.8821V14.9998H12.1037V15.8821H12.6037ZM16.7655 15.6321H12.3537V16.1321H16.7655V15.6321ZM16.5155 14.9998V15.8821H17.0155V14.9998H16.5155ZM15.8831 16.9552H12.3537V17.4552H15.8831V16.9552ZM16.1331 18.0876V17.2052H15.6331V18.0876H16.1331ZM12.3537 18.3376H15.8831V17.8376H12.3537V18.3376ZM12.1037 17.2052V18.0876H12.6037V17.2052H12.1037Z" fill="white"/>
<path d="M19.3862 19.6747C19.6145 19.8633 19.9818 20.0221 20.4881 20.1413C20.7958 20.2207 21.0241 20.2902 21.1829 20.3497C21.3517 20.4093 21.4608 20.4688 21.5403 20.5483C21.6097 20.6177 21.6494 20.717 21.6494 20.8361C21.6494 21.0148 21.58 21.1538 21.4211 21.253C21.2722 21.3523 21.0439 21.4019 20.7461 21.4019C20.4781 21.4019 20.2697 21.3523 20.1108 21.253C19.9619 21.1538 19.8627 21.0446 19.8131 20.8957C19.7833 20.856 19.7535 20.8262 19.7237 20.8063C19.7039 20.7865 19.6642 20.7766 19.6145 20.7766H19.0487C19.009 20.7766 18.9792 20.7865 18.9494 20.8163C18.9197 20.8361 18.9097 20.8758 18.8899 20.9453C18.8998 21.1339 18.9594 21.3225 19.0686 21.4913C19.1778 21.66 19.3465 21.799 19.5649 21.9181C19.7833 22.0372 20.0513 22.1067 20.359 22.1365V22.5732C20.359 22.6229 20.3689 22.6527 20.3987 22.6824C20.4285 22.7023 20.4682 22.7221 20.5079 22.7221H20.895C20.9447 22.7221 20.9744 22.7122 21.0042 22.6824C21.0241 22.6527 21.0439 22.613 21.0439 22.5732V22.1365C21.5006 22.0869 21.8678 21.9479 22.1259 21.7196C22.384 21.4813 22.523 21.1935 22.523 20.8262C22.523 20.578 22.4733 20.3696 22.3642 20.2108C22.255 20.0519 22.0961 19.9229 21.8678 19.8137C21.6494 19.7045 21.3517 19.6152 20.9744 19.5258C20.7064 19.4464 20.4881 19.3869 20.3392 19.3273C20.2002 19.2677 20.091 19.1983 20.0215 19.1188M19.3961 18.0071C19.6344 17.7788 19.9719 17.6398 20.3888 17.5902V17.1534C20.3888 17.1038 20.4086 17.074 20.4285 17.0442C20.4583 17.0144 20.4881 17.0045 20.5377 17.0045H20.9248C20.9645 17.0045 21.0042 17.0244 21.034 17.0442C21.0638 17.074 21.0737 17.1038 21.0737 17.1534V17.6001C21.3517 17.6398 21.5899 17.7192 21.7785 17.8483C21.977 17.9674 22.1358 18.1063 22.2351 18.2751C22.3443 18.4438 22.4039 18.5927 22.4039 18.7615C22.4039 18.8012 22.3939 18.831 22.3642 18.8608C22.3344 18.8905 22.3046 18.9005 22.2649 18.9005H21.6693C21.58 18.9005 21.5105 18.8608 21.4807 18.7813C21.4608 18.6424 21.3814 18.5332 21.2325 18.4438C21.0836 18.3545 20.905 18.3049 20.6866 18.3049C20.4483 18.3049 20.2697 18.3446 20.1307 18.4438M20.7362 23.824C22.93 23.824 24.7068 22.0471 24.7068 19.8534C24.7068 17.6596 22.93 15.8828 20.7362 15.8828C18.5425 15.8828 16.7656 17.6596 16.7656 19.8534C16.7656 22.0471 18.5425 23.824 20.7362 23.824Z" stroke="#4FB400" stroke-width="4"/>
<path d="M20.7362 23.824C22.93 23.824 24.7068 22.0471 24.7068 19.8534C24.7068 17.6596 22.93 15.8828 20.7362 15.8828C18.5425 15.8828 16.7656 17.6596 16.7656 19.8534C16.7656 22.0471 18.5425 23.824 20.7362 23.824ZM18.9494 20.8163C18.9792 20.7865 19.009 20.7766 19.0487 20.7766H19.6145C19.6642 20.7766 19.7039 20.7865 19.7237 20.8063C19.7535 20.8262 19.7833 20.856 19.8131 20.8957C19.8627 21.0446 19.9619 21.1538 20.1108 21.253C20.2697 21.3523 20.4781 21.4019 20.7461 21.4019C21.0439 21.4019 21.2722 21.3523 21.4211 21.253C21.58 21.1538 21.6494 21.0148 21.6494 20.8361C21.6494 20.717 21.6097 20.6177 21.5403 20.5483C21.4608 20.4688 21.3517 20.4093 21.1829 20.3497C21.0241 20.2902 20.7958 20.2207 20.4881 20.1413C19.9818 20.0221 19.6145 19.8633 19.3862 19.6747C19.1579 19.4762 19.0388 19.1983 19.0388 18.831C19.0388 18.5034 19.1579 18.2255 19.3961 18.0071C19.6344 17.7788 19.9719 17.6398 20.3888 17.5902V17.1534C20.3888 17.1038 20.4086 17.074 20.4285 17.0442C20.4583 17.0144 20.4881 17.0045 20.5377 17.0045H20.9248C20.9645 17.0045 21.0042 17.0244 21.034 17.0442C21.0638 17.074 21.0737 17.1038 21.0737 17.1534V17.6001C21.3517 17.6398 21.5899 17.7192 21.7785 17.8483C21.977 17.9674 22.1358 18.1063 22.2351 18.2751C22.3443 18.4438 22.4039 18.5927 22.4039 18.7615C22.4039 18.8012 22.3939 18.831 22.3642 18.8608C22.3344 18.8905 22.3046 18.9005 22.2649 18.9005H21.6693C21.58 18.9005 21.5105 18.8608 21.4807 18.7813C21.4608 18.6424 21.3814 18.5332 21.2325 18.4438C21.0836 18.3545 20.905 18.3049 20.6866 18.3049C20.4483 18.3049 20.2697 18.3446 20.1307 18.4438C19.9917 18.5332 19.9222 18.6622 19.9222 18.831C19.9222 18.9501 19.952 19.0494 20.0215 19.1188C20.091 19.1983 20.2002 19.2677 20.3392 19.3273C20.4881 19.3869 20.7064 19.4464 20.9744 19.5258C21.3517 19.6152 21.6494 19.7045 21.8678 19.8137C22.0961 19.9229 22.255 20.0519 22.3642 20.2108C22.4733 20.3696 22.523 20.578 22.523 20.8262C22.523 21.1935 22.384 21.4813 22.1259 21.7196C21.8678 21.9479 21.5006 22.0869 21.0439 22.1365V22.5732C21.0439 22.613 21.0241 22.6527 21.0042 22.6824C20.9744 22.7122 20.9447 22.7221 20.895 22.7221H20.5079C20.4682 22.7221 20.4285 22.7023 20.3987 22.6824C20.3689 22.6527 20.359 22.6229 20.359 22.5732V22.1365C20.0513 22.1067 19.7833 22.0372 19.5649 21.9181C19.3465 21.799 19.1778 21.66 19.0686 21.4913C18.9594 21.3225 18.8998 21.1339 18.8899 20.9453C18.9097 20.8758 18.9197 20.8361 18.9494 20.8163Z" fill="white"/>
</svg>
