<svg width="30" height="30" viewBox="0 0 30 30" fill="none" xmlns="http://www.w3.org/2000/svg">
<circle cx="15" cy="15" r="15" fill="#FF9409"/>
<path fill-rule="evenodd" clip-rule="evenodd" d="M12.1301 7.93888C12.1301 7.32974 12.6239 6.83594 13.233 6.83594H17.6448C18.2539 6.83594 18.7477 7.32974 18.7477 7.93888V8.82123C18.7477 9.06488 18.5502 9.26241 18.3065 9.26241H18.0859C17.8423 9.26241 17.6448 9.06488 17.6448 8.82123V8.38006C17.6448 8.1364 17.4472 7.93888 17.2036 7.93888H13.6742C13.4305 7.93888 13.233 8.1364 13.233 8.38006V8.82123C13.233 9.06488 13.0355 9.26241 12.7918 9.26241H12.5712C12.3276 9.26241 12.1301 9.06488 12.1301 8.82123V7.93888ZM6.83594 10.8065C6.83594 10.0756 7.4285 9.483 8.15947 9.483H22.7183C23.4493 9.483 24.0418 10.0756 24.0418 10.8065V20.9536C24.0418 21.6846 23.4493 22.2771 22.7183 22.2771H8.15947C7.4285 22.2771 6.83594 21.6846 6.83594 20.9536V10.8065ZM7.93888 11.0271C7.93888 10.7835 8.1364 10.5859 8.38006 10.5859H22.4977C22.7414 10.5859 22.9389 10.7835 22.9389 11.0271V13.5929L17.4242 14.4637V13.8948C17.4242 13.4074 17.0291 13.0124 16.5418 13.0124H14.3359C13.8486 13.0124 13.4536 13.4074 13.4536 13.8948V14.4637L7.93888 13.5929V11.0271ZM17.4242 16.5418V15.5666L22.9389 14.6958V20.733C22.9389 20.9767 22.7414 21.1742 22.4977 21.1742H8.38006C8.1364 21.1742 7.93888 20.9767 7.93888 20.733V14.6958L13.4536 15.5666V16.5418C13.4536 17.0291 13.8486 17.4242 14.3359 17.4242H16.5418C17.0291 17.4242 17.4242 17.0291 17.4242 16.5418ZM14.7771 14.1153C14.6553 14.1153 14.5565 14.2141 14.5565 14.3359V16.1006C14.5565 16.2225 14.6553 16.3212 14.7771 16.3212H16.1006C16.2225 16.3212 16.3212 16.2225 16.3212 16.1006V14.3359C16.3212 14.2141 16.2225 14.1153 16.1006 14.1153H14.7771Z" fill="white"/>
</svg>
