<svg width="30" height="30" viewBox="0 0 30 30" fill="none" xmlns="http://www.w3.org/2000/svg">
<circle cx="15" cy="15" r="15" fill="white"/>
<path fill-rule="evenodd" clip-rule="evenodd" d="M30 15C30 23.2843 23.2843 30 15 30C6.71573 30 0 23.2843 0 15C0 6.71573 6.71573 0 15 0C23.2843 0 30 6.71573 30 15ZM15.0625 11.25H22C22.8272 11.25 23.5 11.9235 23.5 12.75V20.25C23.5 21.0772 22.8272 21.75 22 21.75H8.5C7.67275 21.75 7 21.0772 7 20.25V10.5C7 9.67349 7.67275 8.99999 8.5 8.99999H12.625C13.0945 8.99999 13.5437 9.22424 13.825 9.59999L15.0625 11.25ZM8.5 20.25V10.5H12.625L13.8625 12.15C14.1437 12.5258 14.593 12.75 15.0625 12.75H22L22.0007 20.25H8.5Z" fill="#485056"/>
</svg>
