<svg width="31" height="30" viewBox="0 0 31 30" fill="none" xmlns="http://www.w3.org/2000/svg">
<circle cx="15.75" cy="15" r="15" fill="white"/>
<path fill-rule="evenodd" clip-rule="evenodd" d="M15.75 30C24.0343 30 30.75 23.2843 30.75 15C30.75 6.71573 24.0343 0 15.75 0C7.46573 0 0.75 6.71573 0.75 15C0.75 23.2843 7.46573 30 15.75 30ZM5.75 18.7658C5.75 19.2115 5.83007 19.638 5.97627 20.0311H10.5816C10.5506 19.7867 10.5346 19.538 10.5346 19.2859C10.5346 18.1097 10.8838 17.007 11.4869 16.0861C10.8786 15.5431 10.0836 15.2144 9.21373 15.2144C7.30076 15.2144 5.75 16.8044 5.75 18.7658ZM9.22836 14.4089C10.1636 14.4089 10.9217 13.6876 10.9217 12.7979C10.9217 11.9082 10.1636 11.1869 9.22836 11.1869C8.29313 11.1869 7.53498 11.9082 7.53498 12.7979C7.53498 13.6876 8.29313 14.4089 9.22836 14.4089ZM18.5582 11.1863C18.5582 12.3938 17.5244 13.3726 16.2491 13.3726C14.9738 13.3726 13.9399 12.3938 13.9399 11.1863C13.9399 9.97884 14.9738 9 16.2491 9C17.5244 9 18.5582 9.97884 18.5582 11.1863ZM23.3009 14.4089C24.2361 14.4089 24.9943 13.6877 24.9943 12.798C24.9943 11.9083 24.2361 11.187 23.3009 11.187C22.3657 11.187 21.6075 11.9083 21.6075 12.798C21.6075 13.6877 22.3657 14.4089 23.3009 14.4089ZM26.5238 20.0311C26.6699 19.638 26.75 19.2115 26.75 18.7659C26.75 16.8045 25.1992 15.2144 23.2863 15.2144C22.4144 15.2144 21.6177 15.5448 21.0088 16.09C21.6103 17.0101 21.9586 18.1113 21.9586 19.2859C21.9586 19.538 21.9426 19.7867 21.9116 20.0311H26.5238ZM11.5794 20.0311H12.4512H20.0488H20.9137C20.9507 19.7882 20.9699 19.5393 20.9699 19.2859C20.9699 18.4133 20.7426 17.5949 20.3453 16.8889C19.5304 15.4411 18.0001 14.466 16.2466 14.466C14.4954 14.466 12.9669 15.4385 12.1512 16.883C11.7518 17.5904 11.5233 18.4109 11.5233 19.2859C11.5233 19.5393 11.5425 19.7882 11.5794 20.0311Z" fill="#27AE60"/>
</svg>
