<svg width="30" height="30" viewBox="0 0 30 30" fill="none" xmlns="http://www.w3.org/2000/svg">
<circle cx="15" cy="15" r="15" fill="white"/>
<path fill-rule="evenodd" clip-rule="evenodd" d="M30 15C30 23.2843 23.2843 30 15 30C6.71573 30 0 23.2843 0 15C0 6.71573 6.71573 0 15 0C23.2843 0 30 6.71573 30 15ZM7.6559 16.916L12.0106 21.2716C12.0997 21.3607 12.2451 21.3572 12.3298 21.264L22.3517 10.2402C22.4336 10.1501 22.427 10.0106 22.3369 9.92865L20.9087 8.62951C20.8186 8.54751 20.679 8.55413 20.5971 8.64431L12.2492 17.8281C12.1645 17.9213 12.019 17.9248 11.93 17.8357L9.33271 15.2384C9.24654 15.1523 9.10684 15.1523 9.0207 15.2385L7.65588 16.6041C7.56978 16.6902 7.56979 16.8299 7.6559 16.916Z" fill="#00A3FF"/>
</svg>
