<svg width="30" height="30" viewBox="0 0 30 30" fill="none" xmlns="http://www.w3.org/2000/svg">
<path d="M30 15C30 23.2843 23.2843 30 15 30C6.71573 30 0 23.2843 0 15C0 6.71573 6.71573 0 15 0C23.2843 0 30 6.71573 30 15Z" fill="#EC374A"/>
<path fill-rule="evenodd" clip-rule="evenodd" d="M8.22214 15.8959C8.22214 12.0898 11.2652 9.0168 15 9.0168C18.735 9.0168 21.7779 12.1053 21.7779 15.8959C21.7779 19.6864 18.735 22.7749 15 22.7749C11.265 22.7749 8.22214 19.6864 8.22214 15.8959ZM14.9993 12.4121C14.7208 12.4121 14.5046 12.6314 14.5046 12.9143V16.7886C14.5046 17.0542 14.7188 17.2755 14.9993 17.2755H17.6397C17.9182 17.2755 18.1343 17.0562 18.1343 16.7733C18.1343 16.4905 17.9182 16.2712 17.6397 16.2712H15.4939V12.9143C15.4939 12.6314 15.2777 12.4121 14.9993 12.4121ZM12.1903 6.75358C12.1903 6.33203 12.5173 6 12.9329 6H17.0067C17.4223 6 17.7493 6.33203 17.7493 6.75358C17.7493 7.17513 17.4223 7.50716 17.0067 7.50716H15.7577V7.80216C17.2073 7.94021 18.5312 8.45565 19.6494 9.2686L20.166 8.74436L19.9668 8.54226C19.6771 8.24815 19.6771 7.77045 19.9668 7.47635C20.2567 7.18218 20.7275 7.18218 21.0174 7.47635L22.4507 8.93115C22.7405 9.22525 22.7405 9.70295 22.4507 9.99706C22.3064 10.1436 22.1238 10.2177 21.9255 10.2177C21.7272 10.2177 21.5446 10.1436 21.4002 9.99706L21.2012 9.79511L20.7572 10.2458C22.1468 11.7012 23 13.7014 23 15.8805C23 20.3602 19.414 24 15 24C10.586 24 7 20.3602 7 15.8805C7 11.6576 10.1895 8.18338 14.2725 7.80193V7.50716H12.9329C12.5173 7.50716 12.1903 7.17513 12.1903 6.75358Z" fill="white" stroke="white" stroke-width="0.25"/>
</svg>
