<svg width="50" height="50" viewBox="0 0 50 50" fill="none" xmlns="http://www.w3.org/2000/svg">
<path fill-rule="evenodd" clip-rule="evenodd" d="M5.85938 25.0014C5.85938 14.4311 14.4253 5.86328 24.9975 5.86328C35.5643 5.86328 44.1356 14.4313 44.1356 25.0014C44.1356 35.5721 35.5643 44.1395 24.9975 44.1395C14.4252 44.1395 5.85938 35.5723 5.85938 25.0014ZM24.9975 3.86328C13.3206 3.86328 3.85938 13.3267 3.85938 25.0014C3.85938 36.6768 13.3206 46.1395 24.9975 46.1395C36.6686 46.1395 46.1356 36.677 46.1356 25.0014C46.1356 13.3265 36.6686 3.86328 24.9975 3.86328ZM35.0398 19.9689C35.4383 19.5864 35.4512 18.9534 35.0687 18.555C34.6862 18.1566 34.0532 18.1436 33.6548 18.5261L20.8861 30.7839L17.0839 26.873C16.6989 26.477 16.0658 26.4681 15.6698 26.8531C15.2738 27.2381 15.2649 27.8712 15.6499 28.2672L20.1448 32.8905C20.5281 33.2847 21.1577 33.2956 21.5543 32.9148L35.0398 19.9689Z" fill="#00A3FF"/>
<path d="M35.0687 18.555L35.2491 18.3818L35.0687 18.555ZM35.0398 19.9689L34.8667 19.7885L35.0398 19.9689ZM33.6548 18.5261L33.4817 18.3458L33.6548 18.5261ZM20.8861 30.7839L20.7069 30.9581C20.8027 31.0567 20.9601 31.0594 21.0593 30.9642L20.8861 30.7839ZM17.0839 26.873L17.2631 26.6987L17.0839 26.873ZM15.6698 26.8531L15.4955 26.6738H15.4955L15.6698 26.8531ZM15.6499 28.2672L15.4706 28.4414L15.6499 28.2672ZM20.1448 32.8905L20.3241 32.7162L20.1448 32.8905ZM21.5543 32.9148L21.3812 32.7345L21.5543 32.9148ZM24.9975 5.61328C14.2872 5.61328 5.60938 14.2931 5.60938 25.0014H6.10938C6.10938 14.5692 14.5633 6.11328 24.9975 6.11328V5.61328ZM44.3856 25.0014C44.3856 14.2932 35.7023 5.61328 24.9975 5.61328V6.11328C35.4263 6.11328 43.8856 14.5694 43.8856 25.0014H44.3856ZM24.9975 44.3895C35.7024 44.3895 44.3856 35.7102 44.3856 25.0014H43.8856C43.8856 35.434 35.4263 43.8895 24.9975 43.8895V44.3895ZM5.60938 25.0014C5.60938 35.7104 14.2872 44.3895 24.9975 44.3895V43.8895C14.5633 43.8895 6.10938 35.4342 6.10938 25.0014H5.60938ZM4.10938 25.0014C4.10938 13.4647 13.4586 4.11328 24.9975 4.11328V3.61328C13.1825 3.61328 3.60938 13.1886 3.60938 25.0014H4.10938ZM24.9975 45.8895C13.4587 45.8895 4.10938 36.5387 4.10938 25.0014H3.60938C3.60938 36.8148 13.1825 46.3895 24.9975 46.3895V45.8895ZM45.8856 25.0014C45.8856 36.5388 36.5306 45.8895 24.9975 45.8895V46.3895C36.8067 46.3895 46.3856 36.8151 46.3856 25.0014H45.8856ZM24.9975 4.11328C36.5306 4.11328 45.8856 13.4646 45.8856 25.0014H46.3856C46.3856 13.1884 36.8067 3.61328 24.9975 3.61328V4.11328ZM34.8884 18.7281C35.1752 19.0269 35.1655 19.5017 34.8667 19.7885L35.213 20.1492C35.711 19.6711 35.7271 18.8799 35.2491 18.3818L34.8884 18.7281ZM33.8279 18.7065C34.1267 18.4196 34.6015 18.4293 34.8884 18.7281L35.2491 18.3818C34.771 17.8838 33.9797 17.8677 33.4817 18.3458L33.8279 18.7065ZM21.0593 30.9642L33.8279 18.7065L33.4817 18.3458L20.713 30.6035L21.0593 30.9642ZM16.9046 27.0473L20.7069 30.9581L21.0654 30.6096L17.2631 26.6987L16.9046 27.0473ZM15.8441 27.0323C16.1411 26.7436 16.6159 26.7503 16.9046 27.0473L17.2631 26.6987C16.7819 26.2037 15.9905 26.1926 15.4955 26.6738L15.8441 27.0323ZM15.8291 28.0929C15.5404 27.7959 15.5471 27.3211 15.8441 27.0323L15.4955 26.6738C15.0005 27.1551 14.9894 27.9464 15.4706 28.4414L15.8291 28.0929ZM20.3241 32.7162L15.8291 28.0929L15.4706 28.4414L19.9656 33.0648L20.3241 32.7162ZM21.3812 32.7345C21.0837 33.02 20.6115 33.0119 20.3241 32.7162L19.9656 33.0648C20.4446 33.5575 21.2317 33.5711 21.7275 33.0951L21.3812 32.7345ZM34.8667 19.7885L21.3812 32.7345L21.7275 33.0951L35.213 20.1492L34.8667 19.7885Z" fill="#00A3FF"/>
</svg>
