<svg width="22" height="22" viewBox="0 0 22 22" fill="none" xmlns="http://www.w3.org/2000/svg">
<path d="M11 1C5.48615 1 1 5.48577 1 11C1 16.5142 5.48615 21 11 21C16.5138 21 21 16.5142 21 11C21 5.48577 16.5138 1 11 1ZM11 20.2308C5.91038 20.2308 1.76923 16.0896 1.76923 11C1.76923 5.91038 5.91038 1.76923 11 1.76923C16.0896 1.76923 20.2308 5.91038 20.2308 11C20.2308 16.0896 16.0896 20.2308 11 20.2308Z" stroke="#00B48D" stroke-width="0.75"/>
<path d="M15.7142 6.89894L9.80301 13.5489L6.24186 10.7001C6.07648 10.5674 5.83378 10.5947 5.70148 10.7601C5.56878 10.9263 5.59571 11.1682 5.76148 11.3009L9.60763 14.3778C9.6784 14.4343 9.7634 14.462 9.84801 14.462C9.95417 14.462 10.0599 14.4182 10.1357 14.3328L16.2896 7.40971C16.4307 7.25125 16.4165 7.00779 16.2576 6.86702C16.0984 6.72548 15.8557 6.73971 15.7142 6.89894Z" stroke="#00B48D" stroke-width="0.75"/>
</svg>
